<svg width="360" height="346" viewBox="0 0 360 346" fill="none" xmlns="http://www.w3.org/2000/svg">
<g filter="url(#filter0_f_21_91)">
<path d="M185.652 160.348C190.646 165.341 190.945 173.431 193.499 179.58C196.139 185.958 201.546 191.936 201.546 198.727C201.546 205.518 196.139 211.496 193.499 217.874C190.959 224.023 190.66 232.098 185.652 237.106C180.644 242.114 172.569 242.399 166.42 244.953C160.042 247.593 154.064 253 147.273 253C140.482 253 134.504 247.593 128.126 244.953C121.977 242.414 113.902 242.114 108.894 237.106C103.9 232.113 103.601 224.023 101.047 217.874C98.4929 211.725 93 205.518 93 198.727C93 191.936 98.4073 185.958 101.047 179.58C103.586 173.431 103.886 165.356 108.894 160.348C113.887 155.354 121.977 155.055 128.126 152.501C134.504 149.861 140.482 144.454 147.273 144.454C154.064 144.454 160.042 149.861 166.42 152.501C172.569 155.04 180.644 155.34 185.652 160.348Z" fill="url(#paint0_linear_21_91)"/>
</g>
<g filter="url(#filter1_f_21_91)">
<path d="M266.419 126.877C266.576 131.457 263.152 135.409 261.654 139.446C260.085 143.627 260.013 148.848 257.017 152.059C254.021 155.269 248.814 155.711 244.762 157.566C240.838 159.349 237.143 163.044 232.563 163.216C227.983 163.387 224.031 159.948 219.994 158.45C215.956 156.952 210.591 156.81 207.381 153.814C204.171 150.817 203.729 145.61 201.874 141.558C200.091 137.634 196.395 133.939 196.224 129.359C196.067 124.78 199.491 120.827 200.99 116.79C202.559 112.609 202.63 107.388 205.626 104.177C208.623 100.967 213.83 100.525 217.882 98.6703C221.791 96.8726 225.501 93.1774 230.066 93.0062C234.632 92.835 238.598 96.2734 242.636 97.7715C246.673 99.2695 252.038 99.4122 255.248 102.408C258.458 105.404 258.901 110.612 260.755 114.664C262.539 118.587 266.234 122.283 266.405 126.863L266.419 126.877Z" fill="url(#paint1_linear_21_91)"/>
</g>
<path d="M185.652 160.348C190.646 165.341 190.945 173.431 193.499 179.58C196.139 185.958 201.546 191.936 201.546 198.727C201.546 205.518 196.139 211.496 193.499 217.874C190.959 224.023 190.66 232.098 185.652 237.106C180.644 242.114 172.569 242.399 166.42 244.953C160.042 247.593 154.064 253 147.273 253C140.482 253 134.504 247.593 128.126 244.953C121.977 242.414 113.902 242.114 108.894 237.106C103.9 232.113 103.601 224.023 101.047 217.874C98.4929 211.725 93 205.518 93 198.727C93 191.936 98.4073 185.958 101.047 179.58C103.586 173.431 103.886 165.356 108.894 160.348C113.887 155.354 121.977 155.055 128.126 152.501C134.504 149.861 140.482 144.454 147.273 144.454C154.064 144.454 160.042 149.861 166.42 152.501C172.569 155.04 180.644 155.34 185.652 160.348Z" fill="url(#paint2_linear_21_91)"/>
<path d="M266.419 126.877C266.576 131.457 263.152 135.409 261.654 139.446C260.085 143.627 260.013 148.848 257.017 152.059C254.021 155.269 248.814 155.711 244.762 157.566C240.838 159.349 237.143 163.044 232.563 163.216C227.983 163.387 224.031 159.948 219.994 158.45C215.956 156.952 210.591 156.81 207.381 153.814C204.171 150.817 203.729 145.61 201.874 141.558C200.091 137.634 196.395 133.939 196.224 129.359C196.067 124.78 199.491 120.827 200.99 116.79C202.559 112.609 202.63 107.388 205.626 104.177C208.623 100.967 213.83 100.525 217.882 98.6703C221.791 96.8726 225.501 93.1774 230.066 93.0062C234.632 92.835 238.598 96.2734 242.636 97.7715C246.673 99.2695 252.038 99.4122 255.248 102.408C258.458 105.404 258.901 110.612 260.755 114.664C262.539 118.587 266.234 122.283 266.405 126.863L266.419 126.877Z" fill="url(#paint3_linear_21_91)"/>
<g filter="url(#filter2_b_21_91)">
<path d="M252.594 223.381L239.354 210.141C258.758 183.689 256.518 146.309 232.592 122.397C206.183 95.988 163.366 95.988 136.958 122.397C110.549 148.806 110.549 191.622 136.958 218.016C160.185 241.244 196.124 244.026 222.405 226.377L236.001 239.974C240.581 244.554 248.015 244.554 252.594 239.974C257.174 235.394 257.174 227.961 252.594 223.381Z" fill="url(#paint4_linear_21_91)"/>
<path d="M238.75 209.697L238.369 210.216L238.824 210.671L252.064 223.911C256.351 228.198 256.351 235.157 252.064 239.444C247.777 243.73 240.819 243.73 236.532 239.444L222.935 225.847L222.499 225.411L221.987 225.754C195.998 243.207 160.457 240.455 137.488 217.486L137.488 217.486C111.372 191.384 111.372 149.043 137.488 122.927C163.604 96.8112 205.945 96.8112 232.061 122.927L232.061 122.927C255.721 146.573 257.938 183.539 238.75 209.697Z" stroke="url(#paint5_linear_21_91)" stroke-width="1.5"/>
</g>
<defs>
<filter id="filter0_f_21_91" x="0" y="51.4541" width="294.546" height="294.546" filterUnits="userSpaceOnUse" color-interpolation-filters="sRGB">
<feFlood flood-opacity="0" result="BackgroundImageFix"/>
<feBlend mode="normal" in="SourceGraphic" in2="BackgroundImageFix" result="shape"/>
<feGaussianBlur stdDeviation="46.5" result="effect1_foregroundBlur_21_91"/>
</filter>
<filter id="filter1_f_21_91" x="103.219" y="0" width="256.206" height="256.222" filterUnits="userSpaceOnUse" color-interpolation-filters="sRGB">
<feFlood flood-opacity="0" result="BackgroundImageFix"/>
<feBlend mode="normal" in="SourceGraphic" in2="BackgroundImageFix" result="shape"/>
<feGaussianBlur stdDeviation="46.5" result="effect1_foregroundBlur_21_91"/>
</filter>
<filter id="filter2_b_21_91" x="99.151" y="84.5902" width="174.878" height="176.818" filterUnits="userSpaceOnUse" color-interpolation-filters="sRGB">
<feFlood flood-opacity="0" result="BackgroundImageFix"/>
<feGaussianBlur in="BackgroundImageFix" stdDeviation="9"/>
<feComposite in2="SourceAlpha" operator="in" result="effect1_backgroundBlur_21_91"/>
<feBlend mode="normal" in="SourceGraphic" in2="effect1_backgroundBlur_21_91" result="shape"/>
</filter>
<linearGradient id="paint0_linear_21_91" x1="172.64" y1="156.382" x2="122.248" y2="240.502" gradientUnits="userSpaceOnUse">
<stop stop-color="#10994D"/>
<stop offset="1" stop-color="#00FF79"/>
</linearGradient>
<linearGradient id="paint1_linear_21_91" x1="261.693" y1="119.145" x2="200.705" y2="136.752" gradientUnits="userSpaceOnUse">
<stop stop-color="#10E4E2"/>
<stop offset="1" stop-color="#00FF79"/>
</linearGradient>
<linearGradient id="paint2_linear_21_91" x1="193.785" y1="212.634" x2="149.355" y2="119.998" gradientUnits="userSpaceOnUse">
<stop stop-color="#79DEA8"/>
<stop offset="1" stop-color="#38D430"/>
</linearGradient>
<linearGradient id="paint3_linear_21_91" x1="261.405" y1="137.108" x2="232.658" y2="77.1838" gradientUnits="userSpaceOnUse">
<stop stop-color="#79DEA8"/>
<stop offset="1" stop-color="#38D430"/>
</linearGradient>
<linearGradient id="paint4_linear_21_91" x1="124.991" y1="235.459" x2="249.898" y2="112.273" gradientUnits="userSpaceOnUse">
<stop stop-color="white" stop-opacity="0.2"/>
<stop offset="1" stop-color="white" stop-opacity="0.49"/>
</linearGradient>
<linearGradient id="paint5_linear_21_91" x1="126.954" y1="113.665" x2="244.763" y2="237.895" gradientUnits="userSpaceOnUse">
<stop stop-color="white"/>
<stop offset="1" stop-color="white" stop-opacity="0"/>
</linearGradient>
</defs>
</svg>
