<svg width="1008" height="298" viewBox="0 0 1008 298" fill="none" xmlns="http://www.w3.org/2000/svg">
<g clip-path="url(#clip0_15_9464)">
<path d="M118.68 178.71H29.6699V297.38H207.69V238.05H118.68V178.71Z" fill="#006A5B"/>
<path d="M118.68 119.37H29.6699V178.71H118.68V119.37Z" fill="#EA0029"/>
<path d="M296.69 60.0303H237.36V178.71H207.69V238.05H296.69V60.0303Z" fill="#79DEA8"/>
<path d="M178.02 178.71H118.68V238.05H207.69V178.71H178.02Z" fill="#38D430"/>
<path d="M237.36 30.3604H178.02V60.0304H237.36V30.3604Z" fill="#FFB600"/>
<path d="M0 0.69043V178.71H29.67V119.37H118.68V60.0304H178.02V30.3604V0.69043H0Z" fill="#FF0000"/>
<path d="M178.02 119.37H207.69V178.71H237.36V60.0303H178.02V119.37Z" fill="#FFDD00"/>
<path d="M207.69 119.37H178.02V178.71H207.69V119.37Z" fill="#FFB600"/>
<path d="M178.02 60.0303H118.68V119.37H178.02V60.0303Z" fill="#FFB600"/>
<path d="M178.02 119.37H118.68V178.71H178.02V119.37Z" fill="#FF0000"/>
<path d="M401.45 98.8008H386.5V177.421H401.45V98.8008Z" fill="#F2F2F2"/>
<path d="M468.3 113.291C457.08 113.291 447.57 117.581 441.75 125.151V115.481H427.13V177.421H441.75V139.761C446.62 130.571 454.66 125.721 465.01 125.721C476.37 125.721 482.12 131.551 482.12 143.051V177.421H496.63V142.171C496.63 133.671 494.18 126.521 489.55 121.481C484.62 116.121 477.27 113.291 468.3 113.291Z" fill="#F2F2F2"/>
<path d="M551.78 139.421C540.28 138.701 530.77 137.671 530.77 132.291C530.77 126.911 540.35 124.951 549.3 124.951C558.91 125.051 567.08 127.641 573.57 132.671L574.26 133.201L582.09 123.451L581.34 122.901C574.94 118.201 563.34 113.181 549.97 113.181C539.93 113.181 531.57 114.981 525.81 118.391C519.92 121.871 516.81 126.941 516.81 133.061C516.81 139.181 520.3 144.041 527.17 147.181C532.45 149.591 539.78 151.121 549.58 151.841C562.96 152.881 570.71 154.541 570.71 159.951C570.71 165.851 561.02 167.951 551.95 167.951C540.21 167.951 530.44 164.661 522.89 158.181L522.23 157.621L514.12 166.501L514.81 167.101C524 175.121 537.41 179.721 551.62 179.721C561.83 179.721 570.31 177.671 576.14 173.781C581.72 170.061 584.67 164.901 584.67 158.851C584.67 147.511 573.61 140.971 551.78 139.411V139.421Z" fill="#F2F2F2"/>
<path d="M657.54 153.151C652.67 162.341 644.63 167.191 634.28 167.191C622.92 167.191 617.17 161.361 617.17 149.861V115.491H602.66V150.741C602.66 159.241 605.11 166.391 609.74 171.431C614.67 176.791 622.02 179.621 630.99 179.621C642.21 179.621 651.72 175.331 657.54 167.761V177.431H672.16V115.491H657.54V153.151Z" fill="#F2F2F2"/>
<path d="M710.81 126.851V115.481H696.19V177.421H710.81V143.421C714.58 133.141 724.6 127.251 738.35 127.251H739.24V114.271H738.35C726.46 114.271 716.23 119.021 710.81 126.851Z" fill="#F2F2F2"/>
<path d="M773.93 144.161H826.4V130.851H773.93V112.101H836.28V98.8008H759.09V177.421H837.38V164.111H773.93V144.161Z" fill="#F2F2F2"/>
<path d="M886.43 158.42L862.81 115.48H846.94L878.83 172.57L863.27 199.37H878.73L925.16 115.48H909.62L886.43 158.42Z" fill="#F2F2F2"/>
<path d="M971.41 113.181C959.87 113.181 950.27 116.281 943.64 122.161C937.03 128.021 933.53 136.461 933.53 146.571C933.53 156.681 937.07 164.991 943.76 170.791C950.52 176.641 960.38 179.731 972.29 179.731C986.62 179.731 997.21 176.241 1005.6 168.751L1006.28 168.141L997.61 158.831L996.96 159.401C990.17 165.401 983.21 167.851 972.96 167.851C954.43 167.851 949.12 158.481 948.05 150.201H1007.42L1007.62 149.591C1007.89 148.781 1008 147.901 1008 146.451C1008 125.621 994.33 113.181 971.43 113.181H971.41ZM948.73 139.301C951.31 130.101 959.36 125.061 971.52 125.061C979.7 125.061 990.03 127.551 993.52 139.201L948.74 139.301H948.73Z" fill="#F2F2F2"/>
</g>
<defs>
<clipPath id="clip0_15_9464">
<rect width="1007.97" height="296.69" fill="white" transform="translate(0 0.69043)"/>
</clipPath>
</defs>
</svg>
