<svg width="190" height="190" viewBox="0 0 190 190" fill="none" xmlns="http://www.w3.org/2000/svg">
<path d="M76.0025 114.004H19.0006V190H133.004V152.005H76.0025V114.004Z" fill="#006A5B"/>
<path d="M76.0025 76.0024H19.0006V114.004H76.0025V76.0024Z" fill="#EA0029"/>
<path d="M190 38.0012H152.005V114.004H133.005V152.005H190V38.0012Z" fill="#79DEA8"/>
<path d="M114.004 114.004H76.0023V152.005H133.004V114.004H114.004Z" fill="#38D430"/>
<path d="M152.005 19.0012H114.004V38.0019H152.005V19.0012Z" fill="#FFB600"/>
<path d="M0 0V114.004H19.0006V76.0027H76.0026V38.0014H114.004V19.0007V0H0Z" fill="#FF0000"/>
<path d="M114.004 76.0026H133.005V114.004H152.005V38.0012H114.004V76.0026Z" fill="#FFDD00"/>
<path d="M133.005 76.0024H114.004V114.004H133.005V76.0024Z" fill="#FFB600"/>
<path d="M114.004 38.0012H76.0023V76.0026H114.004V38.0012Z" fill="#FFB600"/>
<path d="M114.004 76.0024H76.0023V114.004H114.004V76.0024Z" fill="#FF0000"/>
</svg>
