<svg width="207" height="207" viewBox="0 0 207 207" fill="none" xmlns="http://www.w3.org/2000/svg">
<g filter="url(#filter0_f_122_137)">
<circle cx="80.5" cy="80.4697" r="37" fill="url(#paint0_linear_122_137)"/>
</g>
<circle cx="80.5" cy="80.4697" r="37" fill="url(#paint1_linear_122_137)"/>
<g filter="url(#filter1_f_122_137)">
<circle cx="136.5" cy="136.47" r="27" fill="url(#paint2_linear_122_137)"/>
</g>
<circle cx="136.5" cy="136.47" r="27" fill="url(#paint3_linear_122_137)"/>
<g filter="url(#filter2_b_122_137)">
<path d="M110.325 68.4697C113.347 68.4697 116.083 70.1497 117.594 72.6297C118.329 73.8297 118.819 75.3097 118.696 76.8697C118.614 78.0697 118.982 79.2697 119.635 80.3897C121.718 83.7897 126.332 85.0697 129.926 83.1497C133.968 80.8297 139.072 82.2297 141.4 86.1897L144.136 90.9097C146.504 94.8697 145.198 99.9497 141.114 102.23C137.643 104.27 136.418 108.79 138.501 112.23C139.154 113.31 139.889 114.23 141.032 114.79C142.462 115.55 143.564 116.75 144.34 117.95C145.851 120.43 145.728 123.47 144.258 126.15L141.4 130.95C139.889 133.51 137.072 135.11 134.172 135.11C132.743 135.11 131.151 134.71 129.844 133.91C128.782 133.23 127.557 132.99 126.25 132.99C122.208 132.99 118.819 136.31 118.696 140.27C118.696 144.87 114.939 148.47 110.243 148.47H104.69C99.9531 148.47 96.1963 144.87 96.1963 140.27C96.1146 136.31 92.7254 132.99 88.6828 132.99C87.3352 132.99 86.1102 133.23 85.0894 133.91C83.7827 134.71 82.1493 135.11 80.7609 135.11C77.8208 135.11 75.0033 133.51 73.4924 130.95L70.6748 126.15C69.1639 123.55 69.0823 120.43 70.5931 117.95C71.2465 116.75 72.4715 115.55 73.8599 114.79C75.0033 114.23 75.7383 113.31 76.4325 112.23C78.4742 108.79 77.2492 104.27 73.7782 102.23C69.7356 99.9497 68.4289 94.8697 70.7565 90.9097L73.4924 86.1897C75.8608 82.2297 80.9242 80.8297 85.0077 83.1497C88.5603 85.0697 93.1746 83.7897 95.2571 80.3897C95.9105 79.2697 96.278 78.0697 96.1963 76.8697C96.1146 75.3097 96.5638 73.8297 97.3397 72.6297C98.8505 70.1497 101.586 68.5497 104.567 68.4697H110.325ZM107.507 97.1897C101.096 97.1897 95.9105 102.23 95.9105 108.51C95.9105 114.79 101.096 119.79 107.507 119.79C113.918 119.79 118.982 114.79 118.982 108.51C118.982 102.23 113.918 97.1897 107.507 97.1897Z" fill="url(#paint4_linear_122_137)"/>
<path d="M117.38 72.7598L117.38 72.7603C118.095 73.9266 118.564 75.3546 118.447 76.8502L118.447 76.8528C118.361 78.1157 118.748 79.3653 119.419 80.5157L119.419 80.5157L119.422 80.5203C121.574 84.0334 126.333 85.3525 130.043 83.3702L130.043 83.3703L130.05 83.3666C133.972 81.1155 138.925 82.4734 141.184 86.3159C141.184 86.316 141.184 86.3162 141.184 86.3164L143.92 91.0351L143.921 91.038C146.218 94.8784 144.951 99.8009 140.992 102.011L140.992 102.011L140.987 102.014C137.401 104.122 136.13 108.796 138.287 112.359C138.949 113.454 139.714 114.421 140.919 115.012C142.297 115.746 143.369 116.909 144.128 118.083C145.582 120.471 145.474 123.412 144.041 126.026L141.185 130.822L141.185 130.823C139.718 133.307 136.982 134.86 134.172 134.86C132.786 134.86 131.24 134.471 129.977 133.698C128.862 132.985 127.586 132.74 126.25 132.74C122.073 132.74 118.573 136.167 118.446 140.262L118.446 140.262V140.27C118.446 144.724 114.809 148.22 110.243 148.22H104.69C100.082 148.22 96.4463 144.723 96.4464 140.27L96.4463 140.265C96.3617 136.167 92.8597 132.74 88.6828 132.74C87.3095 132.74 86.0309 132.984 84.9547 133.699C83.6916 134.471 82.1062 134.86 80.7609 134.86C77.9093 134.86 75.1736 133.307 73.7077 130.823L70.891 126.024C70.8908 126.024 70.8907 126.024 70.8906 126.023C69.4212 123.494 69.3485 120.473 70.8066 118.08L70.8069 118.08L70.8127 118.069C71.4398 116.918 72.6258 115.752 73.9751 115.012C75.1784 114.421 75.9428 113.454 76.6428 112.365L76.6429 112.365L76.6474 112.357C78.7621 108.795 77.4915 104.122 73.9049 102.014L73.9049 102.014L73.901 102.012C69.9822 99.8018 68.7141 94.8779 70.972 91.0364L70.9728 91.0351L73.7069 86.318C73.7072 86.3176 73.7075 86.3171 73.7078 86.3166C76.0078 82.4727 80.9211 81.1155 84.8842 83.3671L84.8842 83.3671L84.8888 83.3697C88.5593 85.3534 93.319 84.0326 95.4703 80.5203L95.4704 80.5203L95.4731 80.5157C96.1438 79.3659 96.5313 78.117 96.4459 76.8547C96.3676 75.3517 96.8006 73.924 97.5496 72.7655L97.5497 72.7655L97.5532 72.7598C99.0191 70.3535 101.676 68.7986 104.571 68.7197H110.325C113.253 68.7197 115.911 70.3488 117.38 72.7598ZM107.507 96.9397C100.964 96.9397 95.6605 102.086 95.6605 108.51C95.6605 114.935 100.966 120.04 107.507 120.04C114.053 120.04 119.232 114.931 119.232 108.51C119.232 102.089 114.054 96.9397 107.507 96.9397Z" stroke="url(#paint5_linear_122_137)" stroke-width="0.5"/>
</g>
<defs>
<filter id="filter0_f_122_137" x="0.5" y="0.469727" width="160" height="160" filterUnits="userSpaceOnUse" color-interpolation-filters="sRGB">
<feFlood flood-opacity="0" result="BackgroundImageFix"/>
<feBlend mode="normal" in="SourceGraphic" in2="BackgroundImageFix" result="shape"/>
<feGaussianBlur stdDeviation="21.5" result="effect1_foregroundBlur_122_137"/>
</filter>
<filter id="filter1_f_122_137" x="66.5" y="66.4697" width="140" height="140" filterUnits="userSpaceOnUse" color-interpolation-filters="sRGB">
<feFlood flood-opacity="0" result="BackgroundImageFix"/>
<feBlend mode="normal" in="SourceGraphic" in2="BackgroundImageFix" result="shape"/>
<feGaussianBlur stdDeviation="21.5" result="effect1_foregroundBlur_122_137"/>
</filter>
<filter id="filter2_b_122_137" x="51.5" y="50.4697" width="111.918" height="116" filterUnits="userSpaceOnUse" color-interpolation-filters="sRGB">
<feFlood flood-opacity="0" result="BackgroundImageFix"/>
<feGaussianBlur in="BackgroundImageFix" stdDeviation="9"/>
<feComposite in2="SourceAlpha" operator="in" result="effect1_backgroundBlur_122_137"/>
<feBlend mode="normal" in="SourceGraphic" in2="effect1_backgroundBlur_122_137" result="shape"/>
</filter>
<linearGradient id="paint0_linear_122_137" x1="54.5" y1="51.9697" x2="72.1861" y2="118.024" gradientUnits="userSpaceOnUse">
<stop stop-color="#FFDD00"/>
<stop offset="1" stop-color="#FFB600"/>
</linearGradient>
<linearGradient id="paint1_linear_122_137" x1="54.5" y1="51.9697" x2="72.1861" y2="118.024" gradientUnits="userSpaceOnUse">
<stop stop-color="#FFDD00"/>
<stop offset="1" stop-color="#FFB600"/>
</linearGradient>
<linearGradient id="paint2_linear_122_137" x1="156" y1="156.47" x2="142.889" y2="111.758" gradientUnits="userSpaceOnUse">
<stop stop-color="#FFB600"/>
<stop offset="1" stop-color="#FFDD00"/>
</linearGradient>
<linearGradient id="paint3_linear_122_137" x1="156" y1="156.47" x2="142.889" y2="111.758" gradientUnits="userSpaceOnUse">
<stop stop-color="#FFB600"/>
<stop offset="1" stop-color="#FFDD00"/>
</linearGradient>
<linearGradient id="paint4_linear_122_137" x1="73.786" y1="143.953" x2="144.656" y2="76.6992" gradientUnits="userSpaceOnUse">
<stop stop-color="white" stop-opacity="0.2"/>
<stop offset="1" stop-color="white" stop-opacity="0.49"/>
</linearGradient>
<linearGradient id="paint5_linear_122_137" x1="74.859" y1="74.7616" x2="141.874" y2="142.76" gradientUnits="userSpaceOnUse">
<stop stop-color="white"/>
<stop offset="1" stop-color="white" stop-opacity="0"/>
</linearGradient>
</defs>
</svg>
