<svg width="165" height="207" viewBox="0 0 165 207" fill="none" xmlns="http://www.w3.org/2000/svg">
<g filter="url(#filter0_f_122_146)">
<path d="M101.937 43.4697H57.063C49.2962 43.4697 43 50.0407 43 58.1464V148.793C43 156.899 49.2962 163.47 57.063 163.47H101.937C109.704 163.47 116 156.899 116 148.793V58.1464C116 50.0407 109.704 43.4697 101.937 43.4697Z" fill="url(#paint0_linear_122_146)"/>
</g>
<path d="M101.509 43.4697H56.9609C49.2505 43.4697 43 49.7202 43 57.4306V149.47C43 157.18 49.2505 163.431 56.9609 163.431H101.509C109.219 163.431 115.47 157.18 115.47 149.47V57.4306C115.47 49.7202 109.219 43.4697 101.509 43.4697Z" fill="url(#paint1_linear_122_146)"/>
<path fill-rule="evenodd" clip-rule="evenodd" d="M55 63.4697C55 62.3652 55.8954 61.4697 57 61.4697H101C102.105 61.4697 103 62.3652 103 63.4697C103 64.5743 102.105 65.4697 101 65.4697H57C55.8954 65.4697 55 64.5743 55 63.4697ZM55 143.47C55 142.365 55.8954 141.47 57 141.47H101C102.105 141.47 103 142.365 103 143.47C103 144.574 102.105 145.47 101 145.47H57C55.8954 145.47 55 144.574 55 143.47ZM57 121.47C55.8954 121.47 55 122.365 55 123.47C55 124.574 55.8954 125.47 57 125.47H101C102.105 125.47 103 124.574 103 123.47C103 122.365 102.105 121.47 101 121.47H57ZM55 103.47C55 102.365 55.8954 101.47 57 101.47H101C102.105 101.47 103 102.365 103 103.47C103 104.574 102.105 105.47 101 105.47H57C55.8954 105.47 55 104.574 55 103.47ZM57 81.4697C55.8954 81.4697 55 82.3652 55 83.4697C55 84.5743 55.8954 85.4697 57 85.4697H101C102.105 85.4697 103 84.5743 103 83.4697C103 82.3652 102.105 81.4697 101 81.4697H57Z" fill="#F2F2F2"/>
<g filter="url(#filter1_b_122_146)">
<circle cx="124" cy="123.47" r="40" fill="url(#paint2_linear_122_146)"/>
<circle cx="124" cy="123.47" r="40.25" stroke="url(#paint3_linear_122_146)" stroke-width="0.5"/>
</g>
<path d="M105 124.97L117.5 137.47L143.637 110.47" stroke="#F2F2F2" stroke-width="8" stroke-linecap="round"/>
<defs>
<filter id="filter0_f_122_146" x="0" y="0.469727" width="159" height="206" filterUnits="userSpaceOnUse" color-interpolation-filters="sRGB">
<feFlood flood-opacity="0" result="BackgroundImageFix"/>
<feBlend mode="normal" in="SourceGraphic" in2="BackgroundImageFix" result="shape"/>
<feGaussianBlur stdDeviation="21.5" result="effect1_foregroundBlur_122_146"/>
</filter>
<filter id="filter1_b_122_146" x="65.5" y="64.9697" width="117" height="117" filterUnits="userSpaceOnUse" color-interpolation-filters="sRGB">
<feFlood flood-opacity="0" result="BackgroundImageFix"/>
<feGaussianBlur in="BackgroundImageFix" stdDeviation="9"/>
<feComposite in2="SourceAlpha" operator="in" result="effect1_backgroundBlur_122_146"/>
<feBlend mode="normal" in="SourceGraphic" in2="effect1_backgroundBlur_122_146" result="shape"/>
</filter>
<linearGradient id="paint0_linear_122_146" x1="110.78" y1="122.683" x2="45.7419" y2="44.1872" gradientUnits="userSpaceOnUse">
<stop stop-color="#38D430"/>
<stop offset="1" stop-color="#79DEA8"/>
</linearGradient>
<linearGradient id="paint1_linear_122_146" x1="110.288" y1="118.819" x2="48.9646" y2="41.5778" gradientUnits="userSpaceOnUse">
<stop stop-color="#79DEA8"/>
<stop offset="1" stop-color="#38D430"/>
</linearGradient>
<linearGradient id="paint2_linear_122_146" x1="88.5165" y1="158.953" x2="159.484" y2="87.9862" gradientUnits="userSpaceOnUse">
<stop stop-color="white" stop-opacity="0.2"/>
<stop offset="1" stop-color="white" stop-opacity="0.49"/>
</linearGradient>
<linearGradient id="paint3_linear_122_146" x1="88.5165" y1="158.953" x2="159.484" y2="87.9862" gradientUnits="userSpaceOnUse">
<stop stop-color="white" stop-opacity="0.2"/>
<stop offset="1" stop-color="white" stop-opacity="0.49"/>
</linearGradient>
</defs>
</svg>
